<?xml version="1.0" encoding="UTF-8"?><svg id="Layer_2" xmlns="http://www.w3.org/2000/svg" viewBox="0 0 423.67 199.92"><defs><style>.cls-1{fill:none;}.cls-2{fill:#3d3b3a;}.cls-3{fill:#fff;}</style></defs><g id="Layer_1-2"><path class="cls-2" d="M5.9,149.39H0v-1.52h13.58v1.52h-5.92v15.27h-1.77v-15.27Z"/><path class="cls-2" d="M37.63,147.87v16.79h-1.75v-7.75h-10.5v7.75h-1.79v-16.79h1.79v7.48h10.5v-7.48h1.75Z"/><path class="cls-2" d="M62.19,163.12v1.54h-11.9v-16.79h11.52v1.52h-9.73v5.98h8.69v1.52h-8.69v6.23h10.1Z"/><path class="cls-2" d="M97.56,160.18h-9.35l-2.02,4.48h-1.85l7.69-16.79h1.75l7.69,16.79h-1.88l-2.02-4.48ZM96.92,158.73l-4.04-9.02-4.02,9.02h8.06Z"/><path class="cls-2" d="M125.46,147.87v16.79h-1.75v-7.75h-10.5v7.75h-1.79v-16.79h1.79v7.48h10.5v-7.48h1.75Z"/><path class="cls-2" d="M148.66,160.18h-9.35l-2.02,4.48h-1.85l7.69-16.79h1.75l7.69,16.79h-1.88l-2.02-4.48ZM148.01,158.73l-4.04-9.02-4.02,9.02h8.06Z"/><path class="cls-2" d="M176.56,147.87v16.79h-1.46l-10.79-13.63v13.63h-1.79v-16.79h1.48l10.81,13.63v-13.63h1.75Z"/><path class="cls-2" d="M201.05,156.27h1.71v6.4c-.78.7-1.71,1.23-2.79,1.6-1.07.36-2.2.54-3.38.54-1.68,0-3.2-.36-4.54-1.1-1.35-.73-2.41-1.76-3.17-3.06-.77-1.3-1.15-2.76-1.15-4.38s.38-3.08,1.15-4.38c.76-1.3,1.82-2.32,3.17-3.06,1.34-.73,2.86-1.1,4.56-1.1,1.28,0,2.45.2,3.52.6,1.08.41,1.99,1.01,2.73,1.81l-1.1,1.13c-1.33-1.3-3.02-1.96-5.06-1.96-1.36,0-2.59.3-3.69.9-1.1.6-1.96,1.43-2.58,2.5-.63,1.06-.94,2.24-.94,3.56s.31,2.49.94,3.54c.63,1.06,1.48,1.89,2.56,2.5,1.09.61,2.32.92,3.67.92,1.73,0,3.2-.43,4.4-1.29v-5.67Z"/><path class="cls-2" d="M225.49,160.18h-9.35l-2.02,4.48h-1.85l7.69-16.79h1.75l7.69,16.79h-1.88l-2.02-4.48ZM224.85,158.73l-4.04-9.02-4.02,9.02h8.06Z"/><path class="cls-2" d="M256.81,147.87v16.79h-1.71v-13.44l-6.6,11.29h-.83l-6.6-11.23v13.38h-1.71v-16.79h1.48l7.29,12.44,7.23-12.44h1.46Z"/><path class="cls-2" d="M280,160.18h-9.35l-2.02,4.48h-1.85l7.69-16.79h1.75l7.69,16.79h-1.88l-2.02-4.48ZM279.35,158.73l-4.04-9.02-4.02,9.02h8.06Z"/><path class="cls-2" d="M321.31,147.87l-7.44,16.79h-1.75l-7.46-16.79h1.94l6.42,14.58,6.48-14.58h1.81Z"/><path class="cls-2" d="M331.28,147.87h1.79v16.79h-1.79v-16.79Z"/><path class="cls-2" d="M345.72,147.87h1.79v15.25h9.4v1.54h-11.19v-16.79Z"/><path class="cls-2" d="M367.05,147.87h1.79v15.25h9.4v1.54h-11.19v-16.79Z"/><path class="cls-2" d="M398.92,160.18h-9.35l-2.02,4.48h-1.85l7.69-16.79h1.75l7.69,16.79h-1.88l-2.02-4.48ZM398.27,158.73l-4.04-9.02-4.02,9.02h8.06Z"/><path class="cls-2" d="M417.42,164.81c-1.25,0-2.45-.2-3.6-.6-1.14-.4-2.02-.93-2.65-1.58l.71-1.38c.59.61,1.4,1.1,2.4,1.48,1.01.38,2.06.56,3.15.56,1.5,0,2.63-.27,3.38-.81.75-.55,1.13-1.28,1.13-2.17,0-.67-.21-1.19-.63-1.58-.41-.4-.91-.71-1.5-.94-.58-.22-1.41-.46-2.46-.71-1.27-.32-2.27-.63-3.02-.92-.75-.3-1.4-.76-1.94-1.35-.53-.61-.79-1.44-.79-2.48,0-.84.22-1.61.67-2.31.44-.69,1.13-1.25,2.06-1.67.93-.42,2.08-.63,3.46-.63.96,0,1.9.14,2.81.4.93.27,1.73.63,2.4,1.08l-.6,1.42c-.71-.46-1.47-.8-2.27-1.04-.79-.23-1.57-.35-2.33-.35-1.47,0-2.58.29-3.33.85-.74.57-1.1,1.31-1.1,2.21,0,.67.2,1.21.6,1.63.42.41.93.72,1.54.94.61.21,1.44.44,2.48.69,1.23.31,2.23.61,2.98.92.76.29,1.41.74,1.94,1.33.53.6.79,1.41.79,2.44,0,.85-.23,1.62-.69,2.31-.45.7-1.14,1.25-2.08,1.67-.95.41-2.1.6-3.48.6Z"/><polygon class="cls-1" points="223.06 72.61 223.06 72.47 222.97 72.41 223.06 72.61"/><path class="cls-2" d="M202.74,33.25L187.1.31c-.07-.21-.29-.31-.65-.31s-.61.1-.75.31l-22.6,53.38c-1.5,3.57-2.88,6.3-4.12,8.19-1.25,1.89-2.58,3.21-3.98,3.96-1.39.75-3.08,1.12-5.08,1.12-.36,0-.54.22-.54.65s.18.65.54.65c1.43,0,3.21-.07,5.35-.21,2.43-.15,4.57-.23,6.44-.23,2,0,4.35.08,7.06.23,2.43.14,4.29.21,5.58.21.02,0,.03,0,.05,0,.31-.02.47-.23.47-.64s-.16-.61-.47-.64c-.02,0-.03,0-.05,0-3.5,0-6.12-.51-7.88-1.54-1.75-1.04-2.62-2.67-2.62-4.88,0-1.5.5-3.46,1.5-5.9l6.75-15.85h25.5l1.78,3.79,1.68,3.57,1.33,2.83,2.25-3.73,1.61-2.67.51-.85-4.03-8.48ZM174.4,36.65h-1.45l11.15-26.48,10.91,23.08,1.61,3.4h-22.22Z"/><polygon class="cls-2" points="220.06 72.67 220.95 71.19 220.95 71.19 220.06 72.67"/><path class="cls-2" d="M273.23,53.61l-4.5.1c-1.86.14-3.54.21-5.04.21-2,0-4.22-.07-6.65-.21l-4.6-.1c-.22,0-.33.22-.33.65s.11.62.33.62c2.86,0,4.96.36,6.31,1.08,1.36.71,2.04,1.81,2.04,3.31,0,.86-.29,2.04-.85,3.54l-19.29,48.31-2.92-6.39-11.33-24.83-3.33-7.3-1.28-2.8-4.47,7.4,1.24,2.7,11.66,25.33,7.01,15.22c.21.28.59.42,1.17.42.72,0,1.11-.14,1.19-.42l22.81-57.1c1.22-3.08,2.72-5.26,4.5-6.54,1.79-1.29,3.9-1.94,6.33-1.94.21,0,.31-.21.31-.62s-.1-.65-.31-.65Z"/><rect class="cls-3" x="220.56" y="70.5" width="1.62" transform="translate(46.63 223.6) rotate(-58.89)"/><path class="cls-3" d="M223.06,55.01v-.09s-.03,0-.04,0c.01.03.03.06.04.09Z"/><polygon class="cls-2" points="217.46 59.83 217.46 59.83 217.46 59.82 217.46 59.83"/><rect class="cls-2" x="211.29" y="6.18" width="2.15" height="118.03" transform="translate(76.1 -110.25) rotate(35.1)"/><path class="cls-2" d="M62.37,196.17s-.04-.03-.04-.08c0-.05.01-.08.04-.08.25,0,.43-.02.54-.06.13-.04.21-.13.27-.25.07-.14.13-.34.19-.6l1.08-6.17c.04-.23.06-.38.06-.44,0-.19-.06-.32-.17-.38-.1-.07-.28-.1-.54-.1-.03,0-.04-.03-.04-.08,0-.05.01-.08.04-.08l.58.02c.34.02.63.02.85.02.18,0,.4-.01.65-.04.61-.03.93-.04.96-.04.76,0,1.38.16,1.83.48.46.32.69.78.69,1.38,0,.14-.02.3-.04.48-.1.56-.33,1.03-.69,1.42-.36.39-.78.68-1.25.85-.46.18-.91.27-1.35.27-.22,0-.41-.02-.54-.06-.02,0-.02-.01-.02-.04,0-.04,0-.09.02-.15.03-.05.05-.08.08-.08.11.04.23.06.38.06.47,0,.88-.17,1.23-.5.36-.33.59-.83.69-1.5.03-.26.04-.46.04-.58,0-.54-.13-.96-.38-1.27-.25-.3-.56-.46-.94-.46-.28,0-.47.06-.58.17-.11.11-.2.34-.27.69l-1.08,6.15c-.03.24-.04.39-.04.44,0,.2.05.33.15.4.09.06.28.08.56.08.03,0,.04.03.04.08,0,.06-.02.08-.04.08-.27,0-.47,0-.63-.02h-1.75c-.14.02-.33.02-.58.02Z"/><path class="cls-2" d="M77.21,190.9c.23,0,.46.09.67.27.21.17.29.35.25.56-.02.13-.08.25-.19.38-.1.11-.23.17-.4.17-.16,0-.33-.07-.52-.23-.06-.04-.12-.07-.19-.1-.06-.04-.12-.06-.19-.06-.16,0-.34.24-.56.71-.22.47-.43,1.04-.63,1.69-.2.66-.34,1.23-.44,1.73-.02.08-.08.15-.21.19-.13.05-.31.08-.54.08-.29,0-.44-.04-.44-.1.01-.05.04-.19.08-.4.05-.21.09-.4.13-.58l.56-2.98c.01-.14.02-.23.02-.29,0-.23-.08-.35-.25-.35s-.42.18-.75.52c-.02.02-.03.02-.04.02-.04,0-.07-.01-.08-.04-.02-.04-.01-.07.02-.1.32-.36.6-.63.85-.79.25-.18.51-.27.77-.27.22,0,.38.06.48.19.09.11.15.29.15.52,0,.14-.02.29-.04.44l-.27,1.48c.53-1.75,1.11-2.63,1.75-2.63Z"/><path class="cls-2" d="M84.31,189.52c-.24,0-.43-.07-.56-.21-.14-.14-.21-.32-.21-.56,0-.22.07-.4.21-.52.14-.14.32-.21.56-.21.22,0,.4.07.52.21.14.13.21.3.21.52,0,.24-.07.43-.21.56-.13.14-.3.21-.52.21ZM83.42,196.3c-.43,0-.65-.25-.65-.75,0-.14.02-.32.06-.56l.56-2.77c.01-.13.02-.23.02-.31,0-.11-.02-.19-.06-.25-.04-.05-.1-.08-.17-.08-.18,0-.44.18-.77.52,0,.02-.01.02-.02.02-.04,0-.08-.01-.1-.04-.02-.04-.01-.07.02-.1.32-.36.6-.63.85-.79.26-.18.52-.27.77-.27.43,0,.65.23.65.69,0,.16-.02.31-.06.46l-.56,2.94c-.02.08-.02.19-.02.31,0,.21.06.31.19.31.09,0,.2-.03.31-.1.11-.08.24-.2.4-.35.03-.03.05-.04.06-.04.03,0,.05.02.06.06.01.03,0,.06-.02.08-.29.35-.56.61-.79.79-.24.17-.48.25-.73.25Z"/><path class="cls-2" d="M91.81,196.34c-.39,0-.72-.15-1-.44-.27-.3-.4-.66-.4-1.06,0-.23.05-.48.15-.73.11-.26.27-.59.48-1,.19-.36.32-.59.38-.69.07-.15.1-.25.1-.29,0-.05-.05-.08-.15-.08h-.65c-.31,0-.54.04-.69.13-.14.08-.24.23-.31.44-.02.04-.04.06-.08.06-.03,0-.05,0-.06-.02-.02-.03-.02-.05-.02-.08.15-.42.28-.73.4-.94.11-.22.24-.38.4-.48.15-.09.36-.15.63-.15h1.23c.09,0,.15.02.15.06,0,.03-.02.06-.04.1-.18.43-.35.88-.52,1.33-.16.46-.25.84-.29,1.15-.02.1-.02.23-.02.4,0,.39.09.7.27.94.18.22.42.33.73.33.25,0,.49-.07.73-.23.23-.15.44-.36.6-.63.18-.28.3-.59.35-.94v-.27c0-.22-.04-.4-.1-.54-.07-.15-.19-.31-.35-.48-.11-.13-.2-.23-.25-.33-.06-.11-.08-.23-.08-.35,0-.21.07-.36.21-.48.14-.11.31-.17.52-.17.23,0,.42.08.54.25.13.16.19.43.19.83,0,.24-.02.43-.04.58-.06.67-.24,1.29-.56,1.88-.31.57-.68,1.03-1.13,1.38-.43.35-.86.52-1.29.52Z"/><path class="cls-2" d="M104.8,195.15s.01-.02.04-.02c.01,0,.03.02.04.06.03.03.03.05.02.06-.57.7-1.07,1.04-1.5,1.04-.24,0-.41-.06-.52-.19-.1-.14-.15-.34-.15-.63,0-.15.01-.32.04-.5l.17-.9c-.35.71-.76,1.27-1.23,1.67-.46.39-.91.58-1.35.58-.28,0-.5-.08-.67-.25-.16-.17-.23-.42-.23-.75,0-.59.19-1.25.58-1.96.4-.71.9-1.3,1.48-1.79.58-.48,1.13-.73,1.65-.73.17,0,.33.03.5.08.18.06.33.14.46.25.17-.13.3-.27.4-.44.03-.03.05-.04.06-.04.03,0,.05.02.08.04.03.02.03.02.02.02l-.77,4.21c-.03.11-.04.22-.04.31,0,.21.06.31.19.31.17,0,.41-.15.73-.46ZM101.22,195.38c.26,0,.53-.14.81-.42.29-.29.54-.64.75-1.04.21-.4.34-.78.4-1.13.03-.15.04-.28.04-.4,0-.29-.06-.51-.19-.67-.13-.15-.31-.23-.54-.23-.42,0-.79.22-1.1.67-.31.43-.52,1-.65,1.71-.04.28-.06.49-.06.65,0,.29.05.51.15.65.09.14.23.21.4.21Z"/><path class="cls-2" d="M113.24,191.02c.05,0,.08.04.08.13,0,.07-.06.18-.17.31-.1.14-.19.21-.27.21-.03,0-.18-.02-.44-.06-.27-.04-.56-.07-.88-.08l-.56,3.17c-.03.14-.04.24-.04.29,0,.21.05.36.17.46.11.1.28.15.52.15.33,0,.71-.16,1.13-.48.04,0,.07.02.1.04.03.03.03.06,0,.08-.42.39-.79.68-1.1.85-.31.17-.61.25-.92.25-.72,0-1.08-.32-1.08-.98,0-.14.01-.28.04-.44l.52-2.83c.03-.15.04-.28.04-.38,0-.13-.04-.21-.13-.25-.07-.05-.2-.08-.38-.08-.03,0-.04-.03-.04-.08,0-.08.01-.13.04-.13.71,0,1.27-.39,1.69-1.17.01-.03.05-.04.1-.04.04,0,.07.01.1.02.04.02.05.04.04.06l-.19,1.08c.25-.01.46-.02.63-.02.18-.01.33-.03.46-.04.23-.03.41-.04.52-.04Z"/><path class="cls-2" d="M120.8,190.86c.33,0,.59.06.77.17.19.11.29.27.29.48,0,.41-.3.78-.9,1.13-.58.35-1.29.6-2.13.77-.03.2-.04.39-.04.56,0,.54.11.98.33,1.31.22.32.55.48.98.48.19,0,.4-.03.6-.1.22-.07.42-.17.6-.31.03,0,.05.02.08.04.03.03.03.05,0,.06-.32.31-.66.54-1.02.69-.35.14-.7.21-1.06.21-.61,0-1.07-.19-1.38-.56-.31-.38-.46-.84-.46-1.42,0-.19.02-.41.06-.65.09-.48.3-.94.6-1.38.3-.44.69-.8,1.15-1.06.46-.28.96-.42,1.5-.42ZM120.51,191.86s.02-.09.02-.17c0-.15-.04-.27-.13-.35-.07-.08-.17-.13-.29-.13-.29,0-.55.18-.77.54-.21.36-.37.84-.48,1.44,1.03-.28,1.57-.72,1.65-1.33Z"/><path class="cls-2" d="M142.42,187.84s.04.03.04.08c0,.06-.02.08-.04.08-.24,0-.42.03-.54.08-.11.04-.2.13-.27.25-.06.13-.11.32-.17.58l-1.1,6.17c-.02.17-.02.31-.02.44,0,.2.05.33.15.4.09.06.28.08.54.08.03,0,.04.03.04.08,0,.06-.02.08-.04.08-.22,0-.41,0-.54-.02h-1.79c-.14.02-.35.02-.63.02-.02,0-.02-.03-.02-.08,0-.05,0-.08.02-.08.25,0,.44-.02.56-.06s.21-.13.27-.25c.05-.13.11-.32.17-.6l.52-3.06h-3.48l-.54,3.06c-.04.17-.06.32-.06.46,0,.18.05.31.15.38.11.06.3.08.56.08.03,0,.04.03.04.08,0,.06-.02.08-.04.08-.25,0-.45,0-.6-.02h-1.75c-.14.02-.34.02-.6.02-.03,0-.04-.03-.04-.08,0-.05.01-.08.04-.08.25,0,.44-.02.56-.06s.21-.13.27-.25c.05-.13.11-.32.17-.6l1.1-6.17c.03-.23.04-.38.04-.44,0-.18-.06-.3-.17-.38-.1-.07-.28-.1-.54-.1-.02,0-.02-.03-.02-.08,0-.05,0-.08.02-.08l.6.02c.34.02.63.02.85.02.21,0,.5,0,.88-.02l.63-.02s.02.03.02.08c0,.06-.01.08-.02.08-.24,0-.42.03-.54.08-.13.04-.22.14-.29.27-.06.13-.1.32-.15.58l-.5,2.71h3.5l.48-2.71c.01-.18.02-.32.02-.44,0-.19-.05-.32-.15-.4-.1-.07-.27-.1-.52-.1-.03,0-.04-.03-.04-.08,0-.05.01-.08.04-.08l.6.02c.34.02.63.02.85.02s.51,0,.88-.02l.6-.02Z"/><path class="cls-2" d="M148.17,196.36c-.58,0-1.03-.19-1.33-.56-.31-.38-.46-.86-.46-1.48,0-.26.02-.51.06-.73.09-.53.29-1,.58-1.42s.64-.73,1.04-.96c.4-.23.84-.35,1.31-.35.59,0,1.05.18,1.38.54.32.35.48.83.48,1.44,0,.24-.03.49-.08.75-.11.6-.33,1.1-.65,1.52-.31.41-.67.72-1.08.94-.41.21-.82.31-1.25.31ZM148.63,196.02c.28,0,.52-.16.73-.48.21-.33.36-.78.46-1.35.07-.34.1-.7.1-1.06,0-.58-.09-1.05-.27-1.42-.17-.36-.41-.54-.71-.54-.27,0-.5.16-.71.48-.21.31-.37.77-.48,1.38-.06.35-.08.7-.08,1.06,0,.57.08,1.04.25,1.4.17.36.4.54.71.54Z"/><path class="cls-2" d="M156.75,196.3c-.43,0-.65-.26-.65-.77,0-.18.02-.36.06-.54l1.23-6.67c.03-.18.04-.32.04-.44,0-.26-.08-.4-.25-.4-.11,0-.3.06-.56.19h-.02s-.07-.02-.08-.06c0-.05.01-.08.04-.08l2.06-1.02h.04s.05.02.08.04c.04.03.05.05.04.06l-1.5,8.38c-.03.14-.04.25-.04.33,0,.2.07.29.21.29.08,0,.18-.03.29-.1.11-.08.25-.2.42-.35.01-.03.03-.04.06-.04.01,0,.03.02.04.06.03.03.03.06,0,.08-.31.35-.58.61-.81.79-.22.17-.46.25-.71.25Z"/><path class="cls-2" d="M165.11,189.52c-.24,0-.43-.07-.56-.21-.14-.14-.21-.32-.21-.56,0-.22.07-.4.21-.52.14-.14.32-.21.56-.21.22,0,.4.07.52.21.14.13.21.3.21.52,0,.24-.07.43-.21.56-.13.14-.3.21-.52.21ZM164.21,196.3c-.43,0-.65-.25-.65-.75,0-.14.02-.32.06-.56l.56-2.77c.01-.13.02-.23.02-.31,0-.11-.02-.19-.06-.25-.04-.05-.1-.08-.17-.08-.18,0-.44.18-.77.52,0,.02-.01.02-.02.02-.04,0-.08-.01-.1-.04-.02-.04-.01-.07.02-.1.32-.36.6-.63.85-.79.26-.18.52-.27.77-.27.43,0,.65.23.65.69,0,.16-.02.31-.06.46l-.56,2.94c-.02.08-.02.19-.02.31,0,.21.06.31.19.31.09,0,.2-.03.31-.1.11-.08.24-.2.4-.35.03-.03.05-.04.06-.04.03,0,.05.02.06.06.01.03,0,.06-.02.08-.29.35-.56.61-.79.79-.24.17-.48.25-.73.25Z"/><path class="cls-2" d="M174.92,194.98c-.03.14-.04.24-.04.31,0,.21.07.31.21.31.08,0,.18-.03.29-.1.11-.08.25-.2.42-.35.01-.03.03-.04.04-.04.03,0,.05.02.06.06.03.03.03.06,0,.08-.31.35-.58.61-.81.79-.22.17-.46.25-.71.25-.43,0-.65-.26-.65-.77,0-.18.02-.36.06-.54l.17-.92c-.36.72-.75,1.29-1.17,1.69-.42.39-.84.58-1.27.58-.33,0-.62-.1-.85-.31-.22-.22-.33-.55-.33-1,0-.18.02-.36.06-.54.11-.61.36-1.19.75-1.75.39-.57.84-1.02,1.35-1.35.53-.34,1.03-.52,1.5-.52.21,0,.39.03.54.08l.48-2.63c.03-.18.04-.32.04-.44,0-.26-.08-.4-.25-.4-.11,0-.3.06-.56.19h-.02s-.07-.02-.08-.06c0-.05.01-.08.04-.08l2.06-1.02h.04s.05.02.08.04c.04.03.05.05.04.06l-1.5,8.38ZM172.19,195.42c.29,0,.57-.13.83-.4s.51-.61.71-1c.19-.39.34-.76.44-1.1l.06-.35c.04-.33-.04-.59-.25-.77-.2-.19-.44-.29-.73-.29-.88,0-1.44.76-1.69,2.27-.04.21-.06.43-.06.65,0,.67.23,1,.69,1Z"/><path class="cls-2" d="M185.63,195.15s.01-.02.04-.02c.01,0,.03.02.04.06.03.03.03.05.02.06-.57.7-1.07,1.04-1.5,1.04-.24,0-.41-.06-.52-.19-.1-.14-.15-.34-.15-.63,0-.15.01-.32.04-.5l.17-.9c-.35.71-.76,1.27-1.23,1.67-.46.39-.91.58-1.35.58-.28,0-.5-.08-.67-.25-.16-.17-.23-.42-.23-.75,0-.59.19-1.25.58-1.96.4-.71.9-1.3,1.48-1.79.58-.48,1.13-.73,1.65-.73.17,0,.33.03.5.08.18.06.33.14.46.25.17-.13.3-.27.4-.44.03-.03.05-.04.06-.04.03,0,.05.02.08.04.03.02.03.02.02.02l-.77,4.21c-.03.11-.04.22-.04.31,0,.21.06.31.19.31.17,0,.41-.15.73-.46ZM182.04,195.38c.26,0,.53-.14.81-.42.29-.29.54-.64.75-1.04.21-.4.34-.78.4-1.13.03-.15.04-.28.04-.4,0-.29-.06-.51-.19-.67-.13-.15-.31-.23-.54-.23-.42,0-.79.22-1.1.67-.31.43-.52,1-.65,1.71-.04.28-.06.49-.06.65,0,.29.05.51.15.65.09.14.23.21.4.21Z"/><path class="cls-2" d="M194.92,190.9c.22,0,.39.08.5.25.13.16.19.38.19.67,0,.67-.36,1.66-1.08,2.98-.71,1.32-1.53,2.5-2.46,3.54-.92,1.05-1.68,1.58-2.27,1.58-.51,0-.77-.21-.77-.63,0-.25.07-.45.21-.58.13-.14.31-.21.56-.21.14,0,.32.05.56.17.03,0,.09.02.19.06.11.05.22.08.33.08.14,0,.28-.06.44-.17.23-.16.53-.45.88-.9v-.65c0-1.72-.13-3.06-.38-4.02-.24-.96-.56-1.44-.98-1.44-.1,0-.2.04-.31.13-.11.08-.2.18-.27.29-.02.03-.04.04-.08.04-.07,0-.1-.03-.08-.08.15-.32.38-.58.69-.79.32-.22.6-.33.85-.33.33,0,.63.2.88.6.26.39.46.93.58,1.63.13.68.19,1.45.19,2.31v.77c.34-.55.65-1.07.9-1.54.25-.47.4-.82.46-1.04.05-.22.08-.4.08-.54,0-.19-.03-.34-.08-.46-.06-.13-.14-.26-.23-.4-.08-.14-.16-.25-.21-.33-.04-.08-.06-.19-.06-.33,0-.21.07-.36.21-.48.15-.13.34-.19.58-.19Z"/><path class="cls-2" d="M216.51,187.84s.04.03.04.08c0,.06-.02.08-.04.08-.24,0-.42.03-.54.08-.11.04-.2.13-.27.25-.06.13-.11.32-.17.58l-1.1,6.17c-.02.17-.02.31-.02.44,0,.2.05.33.15.4.09.06.28.08.54.08.03,0,.04.03.04.08,0,.06-.02.08-.04.08-.22,0-.41,0-.54-.02h-1.79c-.14.02-.35.02-.63.02-.02,0-.02-.03-.02-.08,0-.05,0-.08.02-.08.25,0,.44-.02.56-.06s.21-.13.27-.25c.05-.13.11-.32.17-.6l.52-3.06h-3.48l-.54,3.06c-.04.17-.06.32-.06.46,0,.18.05.31.15.38.11.06.3.08.56.08.03,0,.04.03.04.08,0,.06-.02.08-.04.08-.25,0-.45,0-.6-.02h-1.75c-.14.02-.34.02-.6.02-.03,0-.04-.03-.04-.08,0-.05.01-.08.04-.08.25,0,.44-.02.56-.06s.21-.13.27-.25c.05-.13.11-.32.17-.6l1.1-6.17c.03-.23.04-.38.04-.44,0-.18-.06-.3-.17-.38-.1-.07-.28-.1-.54-.1-.02,0-.02-.03-.02-.08,0-.05,0-.08.02-.08l.6.02c.34.02.63.02.85.02.21,0,.5,0,.88-.02l.63-.02s.02.03.02.08c0,.06-.01.08-.02.08-.24,0-.42.03-.54.08-.13.04-.22.14-.29.27-.06.13-.1.32-.15.58l-.5,2.71h3.5l.48-2.71c.01-.18.02-.32.02-.44,0-.19-.05-.32-.15-.4-.1-.07-.27-.1-.52-.1-.03,0-.04-.03-.04-.08,0-.05.01-.08.04-.08l.6.02c.34.02.63.02.85.02s.51,0,.88-.02l.6-.02Z"/><path class="cls-2" d="M222.26,196.36c-.58,0-1.03-.19-1.33-.56-.31-.38-.46-.86-.46-1.48,0-.26.02-.51.06-.73.09-.53.29-1,.58-1.42s.64-.73,1.04-.96c.4-.23.84-.35,1.31-.35.59,0,1.05.18,1.38.54.32.35.48.83.48,1.44,0,.24-.03.49-.08.75-.11.6-.33,1.1-.65,1.52-.31.41-.67.72-1.08.94-.41.21-.82.31-1.25.31ZM222.72,196.02c.28,0,.52-.16.73-.48.21-.33.36-.78.46-1.35.07-.34.1-.7.1-1.06,0-.58-.09-1.05-.27-1.42-.17-.36-.41-.54-.71-.54-.27,0-.5.16-.71.48-.21.31-.37.77-.48,1.38-.06.35-.08.7-.08,1.06,0,.57.08,1.04.25,1.4.17.36.4.54.71.54Z"/><path class="cls-2" d="M238.34,195.15s.03-.04.04-.04c.03,0,.05.02.06.06.03.03.03.06,0,.08-.31.35-.58.61-.81.79-.22.17-.46.25-.71.25-.43,0-.65-.26-.65-.77,0-.18.02-.36.06-.54l.4-2.13c.04-.26.06-.46.06-.6,0-.43-.13-.65-.38-.65-.22,0-.45.15-.69.44-.24.29-.47.73-.69,1.31-.22.57-.42,1.26-.58,2.06l-.1.58c-.02.08-.08.15-.21.19-.13.05-.31.08-.54.08-.29,0-.44-.04-.44-.1l.06-.27c.08-.43.13-.67.15-.71l.44-2.35c.04-.25.06-.44.06-.58,0-.22-.04-.38-.13-.48-.07-.11-.17-.17-.29-.17-.22,0-.46.16-.71.48-.25.32-.49.78-.71,1.38-.22.6-.41,1.3-.56,2.1l-.08.44c-.04.18-.29.27-.75.27-.29,0-.44-.04-.44-.1l.06-.27c.08-.43.13-.67.15-.71l.54-2.98c.01-.08.02-.18.02-.29,0-.23-.08-.35-.23-.35-.18,0-.44.18-.77.52,0,.02-.02.02-.04.02-.03,0-.05-.01-.06-.04-.02-.04-.02-.07,0-.1.32-.36.6-.63.85-.79.26-.18.52-.27.77-.27.42,0,.63.24.63.71,0,.14-.02.29-.04.44l-.19,1.13c.29-.73.63-1.3,1.02-1.71.39-.4.8-.6,1.25-.6.28,0,.49.09.65.27.15.18.23.45.23.81,0,.17-.02.39-.06.65l-.1.54c.29-.72.63-1.28,1.02-1.67.39-.4.79-.6,1.21-.6.57,0,.85.35.85,1.06,0,.25-.02.48-.06.69l-.44,2.38c-.03.14-.04.24-.04.31,0,.21.07.31.23.31.08,0,.17-.03.27-.1.11-.08.25-.2.42-.35Z"/><path class="cls-2" d="M246.33,190.86c.33,0,.59.06.77.17.19.11.29.27.29.48,0,.41-.3.78-.9,1.13-.58.35-1.29.6-2.13.77-.03.2-.04.39-.04.56,0,.54.11.98.33,1.31.22.32.55.48.98.48.19,0,.4-.03.6-.1.22-.07.42-.17.6-.31.03,0,.05.02.08.04.03.03.03.05,0,.06-.32.31-.66.54-1.02.69-.35.14-.7.21-1.06.21-.61,0-1.07-.19-1.38-.56-.31-.38-.46-.84-.46-1.42,0-.19.02-.41.06-.65.09-.48.3-.94.6-1.38.3-.44.69-.8,1.15-1.06.46-.28.96-.42,1.5-.42ZM246.04,191.86s.02-.09.02-.17c0-.15-.04-.27-.13-.35-.07-.08-.17-.13-.29-.13-.29,0-.55.18-.77.54-.21.36-.37.84-.48,1.44,1.03-.28,1.57-.72,1.65-1.33Z"/><path class="cls-2" d="M252.92,196.32c-.38,0-.7-.08-.98-.25-.27-.17-.4-.38-.4-.63,0-.19.05-.34.17-.46.13-.11.27-.17.44-.17.15,0,.27.04.35.13.09.07.2.2.31.38.11.18.21.32.31.42.11.08.26.13.44.13.15,0,.26-.04.33-.13.08-.08.14-.21.17-.4v-.17c0-.26-.08-.48-.23-.67-.16-.18-.39-.4-.71-.65-.32-.28-.56-.51-.71-.69-.16-.19-.23-.42-.23-.69,0-.05,0-.14.02-.25.04-.22.15-.43.33-.63.19-.21.43-.38.71-.5.29-.14.61-.21.96-.21.42,0,.74.07.98.21.23.14.34.33.31.58-.03.17-.1.3-.23.4-.11.1-.24.15-.38.15-.18,0-.32-.04-.42-.13-.08-.08-.16-.2-.23-.35-.08-.17-.17-.29-.25-.38-.07-.08-.2-.13-.38-.13-.14,0-.25.05-.33.15-.08.08-.14.18-.15.27-.02.04-.02.1-.02.17,0,.24.07.45.23.63.15.17.39.38.71.63.33.28.57.52.73.73.17.2.25.43.25.69,0,.04-.01.12-.02.23-.06.24-.18.48-.35.73-.18.24-.43.44-.75.6-.31.17-.64.25-1,.25Z"/><path class="cls-2" d="M269.38,196.34c-.72,0-1.41-.16-2.04-.46-.08-.07-.11-.15-.08-.25l.44-1.88c0-.05.02-.08.06-.08.05,0,.08.03.08.08.33,1.5.96,2.25,1.9,2.25.44,0,.8-.15,1.06-.46.28-.3.42-.71.42-1.21,0-.43-.13-.8-.38-1.1-.25-.32-.6-.65-1.06-1-.33-.26-.6-.48-.79-.67-.2-.18-.36-.39-.5-.63-.14-.23-.21-.5-.21-.79,0-.13.01-.26.04-.4.15-.67.51-1.17,1.06-1.52.57-.36,1.21-.54,1.92-.54.53,0,1.05.1,1.58.31.13.07.17.15.15.23l-.21,1.73s-.04.04-.08.04c-.03,0-.05-.01-.06-.04-.14-.61-.37-1.09-.69-1.46-.31-.36-.66-.54-1.04-.54-.31,0-.56.08-.75.25-.2.17-.34.37-.44.6-.08.22-.13.44-.13.65,0,.27.06.51.19.73.13.21.27.39.44.54.17.16.42.37.77.65.51.41.91.78,1.19,1.13.28.33.42.73.42,1.19,0,.16-.01.27-.02.35-.13.67-.47,1.22-1.04,1.65-.56.43-1.29.65-2.19.65Z"/><path class="cls-2" d="M281.04,190.9c.23,0,.46.09.67.27.21.17.29.35.25.56-.02.13-.08.25-.19.38-.1.11-.23.17-.4.17-.16,0-.33-.07-.52-.23-.06-.04-.12-.07-.19-.1-.06-.04-.12-.06-.19-.06-.16,0-.34.24-.56.71-.22.47-.43,1.04-.63,1.69-.2.66-.34,1.23-.44,1.73-.02.08-.08.15-.21.19-.13.05-.31.08-.54.08-.29,0-.44-.04-.44-.1.01-.05.04-.19.08-.4.05-.21.09-.4.13-.58l.56-2.98c.01-.14.02-.23.02-.29,0-.23-.08-.35-.25-.35s-.42.18-.75.52c-.02.02-.03.02-.04.02-.04,0-.07-.01-.08-.04-.02-.04-.01-.07.02-.1.32-.36.6-.63.85-.79.25-.18.51-.27.77-.27.22,0,.38.06.48.19.09.11.15.29.15.52,0,.14-.02.29-.04.44l-.27,1.48c.53-1.75,1.11-2.63,1.75-2.63Z"/><path class="cls-2" d="M288.13,189.52c-.24,0-.43-.07-.56-.21-.14-.14-.21-.32-.21-.56,0-.22.07-.4.21-.52.14-.14.32-.21.56-.21.22,0,.4.07.52.21.14.13.21.3.21.52,0,.24-.07.43-.21.56-.13.14-.3.21-.52.21ZM287.24,196.3c-.43,0-.65-.25-.65-.75,0-.14.02-.32.06-.56l.56-2.77c.01-.13.02-.23.02-.31,0-.11-.02-.19-.06-.25-.04-.05-.1-.08-.17-.08-.18,0-.44.18-.77.52,0,.02-.01.02-.02.02-.04,0-.08-.01-.1-.04-.02-.04-.01-.07.02-.1.32-.36.6-.63.85-.79.26-.18.52-.27.77-.27.43,0,.65.23.65.69,0,.16-.02.31-.06.46l-.56,2.94c-.02.08-.02.19-.02.31,0,.21.06.31.19.31.09,0,.2-.03.31-.1.11-.08.24-.2.4-.35.03-.03.05-.04.06-.04.03,0,.05.02.06.06.01.03,0,.06-.02.08-.29.35-.56.61-.79.79-.24.17-.48.25-.73.25Z"/><path class="cls-2" d="M300.42,196.17s-.02-.03-.02-.08c0-.05,0-.08.02-.08.25,0,.43-.02.54-.06.13-.04.21-.13.27-.25.05-.13.11-.32.17-.6l1.1-6.17c.03-.23.04-.38.04-.44,0-.19-.06-.32-.17-.38-.1-.07-.28-.1-.54-.1-.02,0-.02-.03-.02-.08,0-.05,0-.08.02-.08l.6.02c.34.02.63.02.85.02.21,0,.5,0,.88-.02l.63-.02s.02.03.02.08c0,.06-.01.08-.02.08-.25,0-.44.03-.56.08-.11.04-.2.13-.27.25-.06.13-.1.32-.15.58l-1.08,6.13c-.03.17-.04.31-.04.42,0,.17.03.29.1.35.08.06.22.08.42.08h.33c.67,0,1.24-.16,1.73-.48.5-.33.95-.84,1.35-1.52.01-.01.03-.02.06-.02.07,0,.09.02.08.04-.22.83-.38,1.52-.46,2.04-.02.08-.04.14-.08.17-.03.03-.07.04-.13.04h-5.69Z"/><path class="cls-2" d="M316.51,195.15s.01-.02.04-.02c.01,0,.03.02.04.06.03.03.03.05.02.06-.57.7-1.07,1.04-1.5,1.04-.24,0-.41-.06-.52-.19-.1-.14-.15-.34-.15-.63,0-.15.01-.32.04-.5l.17-.9c-.35.71-.76,1.27-1.23,1.67-.46.39-.91.58-1.35.58-.28,0-.5-.08-.67-.25-.16-.17-.23-.42-.23-.75,0-.59.19-1.25.58-1.96.4-.71.9-1.3,1.48-1.79.58-.48,1.13-.73,1.65-.73.17,0,.33.03.5.08.18.06.33.14.46.25.17-.13.3-.27.4-.44.03-.03.05-.04.06-.04.03,0,.05.02.08.04.03.02.03.02.02.02l-.77,4.21c-.03.11-.04.22-.04.31,0,.21.06.31.19.31.17,0,.41-.15.73-.46ZM312.92,195.38c.26,0,.53-.14.81-.42.29-.29.54-.64.75-1.04.21-.4.34-.78.4-1.13.03-.15.04-.28.04-.4,0-.29-.06-.51-.19-.67-.13-.15-.31-.23-.54-.23-.42,0-.79.22-1.1.67-.31.43-.52,1-.65,1.71-.04.28-.06.49-.06.65,0,.29.05.51.15.65.09.14.23.21.4.21Z"/><path class="cls-2" d="M326.82,195.15s.04-.04.04-.04c.03,0,.05.02.06.06.03.03.03.06.02.08-.31.35-.58.61-.81.79-.24.17-.48.25-.73.25-.43,0-.65-.25-.65-.75,0-.14.02-.32.06-.56l.4-2.13c.04-.25.06-.45.06-.6,0-.43-.14-.65-.42-.65-.25,0-.52.17-.79.5-.27.32-.52.79-.75,1.42-.24.61-.43,1.35-.58,2.23l-.04.25c-.04.18-.29.27-.75.27-.29,0-.44-.04-.44-.1l.06-.27c.08-.43.13-.67.15-.71l.54-2.98c.01-.08.02-.18.02-.29,0-.23-.08-.35-.23-.35-.18,0-.44.18-.77.52,0,.02-.02.02-.04.02-.03,0-.05-.01-.06-.04-.02-.04-.02-.07,0-.1.32-.36.6-.63.85-.79.26-.18.52-.27.77-.27.42,0,.63.24.63.71,0,.14-.02.29-.04.44l-.21,1.21c.3-.76.66-1.35,1.06-1.77.42-.42.84-.63,1.29-.63.63,0,.94.37.94,1.1,0,.17-.03.39-.08.65l-.44,2.38c-.03.14-.04.24-.04.31,0,.21.07.31.23.31.08,0,.18-.03.29-.1.11-.08.24-.2.4-.35Z"/><path class="cls-2" d="M336.73,195.17s.03-.02.04-.02c.03,0,.05.02.06.06.03.03.03.05,0,.06-.58.68-1.05,1.02-1.4,1.02-.24,0-.45-.06-.63-.19-.17-.14-.35-.38-.56-.71l-.77-1.29c-.07-.09-.14-.17-.19-.21-.04-.05-.09-.08-.15-.08l-.4,2.19c-.04.18-.29.27-.75.27-.29,0-.44-.04-.44-.1l.06-.27c.08-.43.13-.67.15-.71l1.25-6.88c.03-.18.04-.32.04-.44,0-.26-.08-.4-.25-.4-.11,0-.3.06-.56.19h-.02s-.05-.02-.06-.06c-.02-.05-.01-.08.02-.08l2.08-1.02h.02s.05.02.08.04c.04.02.05.04.04.06l-.92,5.17c.32-.29.66-.51,1.02-.67.38-.17.74-.25,1.1-.25s.63.08.75.25c.13.16.17.33.15.54-.06.33-.28.66-.67.98-.38.32-.89.6-1.52.83l.85,1.35c.18.28.32.47.44.56.13.1.25.15.38.15.19,0,.44-.11.73-.35ZM334.77,191.42c-.36,0-.69.19-.98.56-.28.36-.47.85-.58,1.46l-.02.1c.69-.17,1.19-.38,1.5-.63.3-.26.46-.59.46-1,0-.33-.13-.5-.38-.5Z"/><path class="cls-2" d="M346.25,195.15s.01-.02.04-.02c.01,0,.03.02.04.06.03.03.03.05.02.06-.57.7-1.07,1.04-1.5,1.04-.24,0-.41-.06-.52-.19-.1-.14-.15-.34-.15-.63,0-.15.01-.32.04-.5l.17-.9c-.35.71-.76,1.27-1.23,1.67-.46.39-.91.58-1.35.58-.28,0-.5-.08-.67-.25-.16-.17-.23-.42-.23-.75,0-.59.19-1.25.58-1.96.4-.71.9-1.3,1.48-1.79.58-.48,1.13-.73,1.65-.73.17,0,.33.03.5.08.18.06.33.14.46.25.17-.13.3-.27.4-.44.03-.03.05-.04.06-.04.03,0,.05.02.08.04.03.02.03.02.02.02l-.77,4.21c-.03.11-.04.22-.04.31,0,.21.06.31.19.31.17,0,.41-.15.73-.46ZM342.66,195.38c.26,0,.53-.14.81-.42.29-.29.54-.64.75-1.04.21-.4.34-.78.4-1.13.03-.15.04-.28.04-.4,0-.29-.06-.51-.19-.67-.13-.15-.31-.23-.54-.23-.42,0-.79.22-1.1.67-.31.43-.52,1-.65,1.71-.04.28-.06.49-.06.65,0,.29.05.51.15.65.09.14.23.21.4.21Z"/></g></svg>