<?xml version="1.0" encoding="UTF-8"?><svg id="Layer_2" xmlns="http://www.w3.org/2000/svg" viewBox="0 0 124.17 120.88"><defs><style>.cls-1{fill:#fff;}</style></defs><g id="Layer_1-2"><polygon class="cls-1" points="73.7 72.61 73.7 72.47 73.6 72.41 73.7 72.61"/><path class="cls-1" d="M53.37,33.25L37.73.31c-.07-.21-.29-.31-.65-.31s-.61.1-.75.31L13.73,53.69c-1.5,3.57-2.88,6.3-4.12,8.19-1.25,1.89-2.58,3.21-3.98,3.96-1.39.75-3.08,1.12-5.08,1.12-.36,0-.54.22-.54.65s.18.65.54.65c1.43,0,3.21-.07,5.35-.21,2.43-.15,4.57-.23,6.44-.23,2,0,4.35.08,7.06.23,2.43.14,4.29.21,5.58.21.02,0,.03,0,.05,0,.31-.02.47-.23.47-.64s-.16-.61-.47-.64c-.02,0-.03,0-.05,0-3.5,0-6.12-.51-7.88-1.54-1.75-1.04-2.62-2.67-2.62-4.88,0-1.5.5-3.46,1.5-5.9l6.75-15.85h25.5l1.78,3.79,1.68,3.57,1.33,2.83,2.25-3.73,1.61-2.67.51-.85-4.03-8.48ZM25.03,36.65h-1.45l11.15-26.48,10.91,23.08,1.61,3.4h-22.22Z"/><polygon class="cls-1" points="70.69 72.67 71.58 71.19 71.58 71.19 70.69 72.67"/><path class="cls-1" d="M123.86,53.61l-4.5.1c-1.86.14-3.54.21-5.04.21-2,0-4.22-.07-6.65-.21l-4.6-.1c-.22,0-.33.22-.33.65s.11.62.33.62c2.86,0,4.96.36,6.31,1.08,1.36.71,2.04,1.81,2.04,3.31,0,.86-.29,2.04-.85,3.54l-19.29,48.31-2.92-6.39-11.33-24.83-3.33-7.3-1.28-2.8-4.47,7.4,1.24,2.7,11.66,25.33,7.01,15.22c.21.28.59.42,1.17.42.72,0,1.11-.14,1.19-.42l22.81-57.1c1.22-3.08,2.72-5.26,4.5-6.54,1.79-1.29,3.9-1.94,6.33-1.94.21,0,.31-.21.31-.62s-.1-.65-.31-.65Z"/><rect class="cls-1" x="71.19" y="70.5" width="1.62" transform="translate(-25.56 95.72) rotate(-58.89)"/><path class="cls-1" d="M73.7,55.01v-.09s-.03,0-.04,0c.01.03.03.06.04.09Z"/><polygon class="cls-1" points="68.09 59.83 68.1 59.83 68.09 59.82 68.09 59.83"/><rect class="cls-1" x="61.92" y="6.18" width="2.15" height="118.03" transform="translate(48.94 -24.37) rotate(35.1)"/></g></svg>